<svg xmlns="http://www.w3.org/2000/svg" height="24" viewBox="0 -960 960 960" width="24"><path d="M320-40q-17 0-28.5-11.5T280-80q0-17 11.5-28.5T320-120q17 0 28.5 11.5T360-80q0 17-11.5 28.5T320-40Zm131.5-11.5Q440-63 440-80t11.5-28.5Q463-120 480-120t28.5 11.5Q520-97 520-80t-11.5 28.5Q497-40 480-40t-28.5-11.5Zm160 0Q600-63 600-80t11.5-28.5Q623-120 640-120t28.5 11.5Q680-97 680-80t-11.5 28.5Q657-40 640-40t-28.5-11.5ZM640-280v-560H320v560h320ZM508.5-731.5Q520-743 520-760t-11.5-28.5Q497-800 480-800t-28.5 11.5Q440-777 440-760t11.5 28.5Q463-720 480-720t28.5-11.5ZM320-840v560-560Zm-80 640v-720h480v162h40v156h-40v402H240Z"/></svg>